<svg aria-hidden="true" style="position: absolute; width: 0; height: 0; overflow: hidden;" version="1.1" xmlns="http://www.w3.org/2000/svg" xmlns:xlink="http://www.w3.org/1999/xlink">
<defs>
<symbol id="icon-IMAGE" viewBox="0 0 97 32">
<path fill="#fff" style="fill: var(--color1, #fff)" d="M37.38 21.752l4.959-12.846h2.624l4.941 12.846h-2.407l-0.977-2.631h-5.791l-0.959 2.631h-2.389zM43.623 11.228l-2.208 6.006h4.416l-2.208-6.006zM59.672 16.98c0 3.139-1.701 4.935-4.072 4.935-0.923 0-1.683-0.272-2.425-0.726v3.429h-2.154v-12.356h1.647l0.344 0.889c0.688-0.563 1.556-1.052 2.787-1.052 2.208 0 3.873 1.778 3.873 4.881zM57.609 16.98c0-1.96-0.995-3.121-2.425-3.121-0.814 0-1.502 0.363-2.009 0.78v4.845c0.561 0.381 1.231 0.671 1.954 0.653 1.466 0 2.479-1.089 2.479-3.157zM69.677 16.98c0 3.139-1.701 4.935-4.072 4.935-0.923 0-1.683-0.272-2.425-0.726v3.429h-2.154v-12.356h1.647l0.344 0.889c0.688-0.563 1.556-1.052 2.787-1.052 2.208 0 3.873 1.778 3.873 4.881zM67.613 16.98c0-1.96-0.995-3.121-2.425-3.121-0.814 0-1.502 0.363-2.009 0.78v4.845c0.561 0.381 1.231 0.671 1.955 0.653 1.466 0 2.479-1.089 2.479-3.157zM79.138 17.706h-6.587c0.109 1.56 1.158 2.631 2.841 2.631 0.887 0 1.9-0.29 2.805-0.798l0.579 1.397c-1.068 0.635-2.353 0.98-3.565 0.98-2.769 0-4.669-1.706-4.669-4.863 0-3.012 1.846-4.99 4.343-4.99 2.624 0 4.253 2.050 4.253 5.080v0.563zM74.867 13.678c-1.303 0-2.19 1.107-2.316 2.703h4.597c-0.127-1.597-0.959-2.703-2.28-2.703zM82.537 21.752h-2.154v-13.173h2.154v13.173zM86.551 21.752h-2.154v-13.173h2.154v13.173zM96.882 16.998c0 3.012-1.936 4.954-4.488 4.954-2.588 0-4.488-1.923-4.488-4.935s1.936-4.954 4.506-4.954c2.552 0 4.47 1.923 4.47 4.935zM94.891 17.016c0-1.869-1.032-3.175-2.497-3.175-1.484 0-2.498 1.288-2.498 3.157s1.032 3.157 2.516 3.157c1.448 0 2.479-1.27 2.479-3.139z"></path>
<path fill="#fff" style="fill: var(--color1, #fff)" d="M15.893 0.442l10.957 6.343c1.018 0.589 1.645 1.678 1.645 2.857v12.686c0 1.179-0.627 2.268-1.645 2.857l-10.957 6.343c-1.018 0.589-2.272 0.589-3.29 0l-10.957-6.343c-1.018-0.589-1.645-1.678-1.645-2.857v-12.686c0-1.179 0.627-2.268 1.645-2.857l10.957-6.343c1.018-0.589 2.272-0.589 3.29 0zM14.248 11.036l-4.274 2.474v4.948l4.274 2.474 4.274-2.474v-4.948l-4.274-2.474z"></path>
</symbol>
</defs>
</svg>
